<?xml version="1.0" encoding="UTF-8"?>
<!DOCTYPE svg PUBLIC "-//W3C//DTD SVG 1.1//EN" "http://www.w3.org/Graphics/SVG/1.1/DTD/svg11.dtd">
<!-- Creator: CorelDRAW -->
<svg xmlns="http://www.w3.org/2000/svg" xml:space="preserve" width="2048px" height="2048px" style="shape-rendering:geometricPrecision; text-rendering:geometricPrecision; image-rendering:optimizeQuality; fill-rule:evenodd; clip-rule:evenodd"
viewBox="0 0 2048 2048"
 xmlns:xlink="http://www.w3.org/1999/xlink">
 <defs>
  <style type="text/css">
   <![CDATA[
    .fil1 {fill:none}
    .fil0 {fill:#42A5F5}
    .fil2 {fill:#FFFFFE;fill-rule:nonzero}
   ]]>
  </style>
 </defs>
 <g id="Layer_x0020_1">
  <metadata id="CorelCorpID_0Corel-Layer"/>
  <rect class="fil0" width="2048" height="2048" rx="256.001" ry="256.001"/>
  <rect class="fil1" x="255.999" y="255.999" width="1536" height="1536"/>
  <path class="fil2" d="M1024 287.998c53.015,0 101.017,21.4914 135.762,56.2382 34.7469,34.7445 56.2382,82.7469 56.2382,135.762 0,53.015 -21.4914,101.015 -56.2382,135.762 -34.7445,34.7445 -82.7469,56.2382 -135.762,56.2382 -53.015,0 -101.017,-21.4937 -135.762,-56.2382 -34.7469,-34.7469 -56.2382,-82.7469 -56.2382,-135.762 0,-53.015 21.4914,-101.017 56.2382,-135.762 34.7445,-34.7469 82.7469,-56.2382 135.762,-56.2382z"/>
  <path class="fil2" d="M576 832c44.1792,0 84.1808,17.9102 113.134,46.8662 28.9559,28.9536 46.8662,68.954 46.8662,113.134 0,44.178 -17.9102,84.1784 -46.8662,113.134 -28.9547,28.9547 -68.9564,46.865 -113.134,46.865 -44.178,0 -84.1784,-17.9102 -113.134,-46.865 -28.9547,-28.9559 -46.865,-68.9564 -46.865,-113.134 0,-44.178 17.9102,-84.1796 46.865,-113.134 28.9559,-28.9559 68.9564,-46.8662 113.134,-46.8662z"/>
  <polygon class="fil2" points="951.751,597.375 663.751,917.375 616.251,874.624 904.251,554.624 "/>
  <path class="fil2" d="M1383.92 878.866c28.9536,-28.9559 68.9552,-46.8662 113.134,-46.8662 44.178,0 84.1784,17.9102 113.134,46.8662 28.9547,28.9547 46.865,68.9564 46.865,113.134 0,44.178 -17.9102,84.1784 -46.865,113.134 -28.9559,28.9547 -68.9564,46.865 -113.134,46.865 -44.178,0 -84.1796,-17.9102 -113.134,-46.865 -28.9559,-28.9559 -46.8662,-68.9564 -46.8662,-113.134 0,-44.1803 17.9102,-84.1808 46.8662,-113.134z"/>
  <polygon class="fil2" points="1168.8,554.624 1456.8,874.624 1409.3,917.375 1121.3,597.375 "/>
  <path class="fil2" d="M1024 895.948c40.9441,0 81.8918,15.6236 113.134,46.8662 31.2425,31.2425 46.865,72.1914 46.865,113.134l-0.125197 0c-0.0011811,41.0209 -15.5823,81.9757 -46.741,113.134 -31.2425,31.2425 -72.1902,46.8662 -113.133,46.8662 -40.9441,0 -81.8918,-15.6236 -113.134,-46.8662l-0.0011811 -0.0011811c-31.1587,-31.1587 -46.7398,-72.1123 -46.741,-113.133l-0.125197 0c0,-40.9441 15.6236,-81.8906 46.865,-113.133l0.0011811 -0.0011811c31.2425,-31.2425 72.1902,-46.8662 113.136,-46.8662z"/>
  <polygon class="fil2" points="1056,607.999 1056,928.132 991.999,928.132 991.999,607.999 "/>
  <path class="fil2" d="M725.893 1333.9c39.489,-10.7811 83.0481,-6.52323 121.313,15.3284 38.3622,21.9083 64.2166,57.3048 75.0024,96.8162 10.7799,39.4902 6.52205,83.0481 -15.3295,121.312 -21.9059,38.3622 -57.3012,64.2166 -96.8139,75.0036 -39.4902,10.7799 -83.0469,6.52205 -121.311,-15.3284l-0.00236221 -0.0011811c-38.3611,-21.9071 -64.2166,-57.3024 -75.0036,-96.815 -10.7799,-39.4878 -6.52205,-83.0457 15.3284,-121.31l0.0011811 -0.00236221c21.9071,-38.3611 57.3048,-64.2178 96.815,-75.0036z"/>
  <polygon class="fil2" points="679.867,1087.27 764.816,1355.21 703.817,1374.46 618.867,1106.52 "/>
  <path class="fil2" d="M485.066 1321.8c37.5449,16.4658 68.7875,47.2075 84.8292,88.3123 16.0477,41.1248 13.9063,84.8623 -2.52402,122.321 -16.4658,37.5425 -47.2063,68.7875 -88.3111,84.8268l-0.00354331 0.0011811c-41.1237,16.0477 -84.8575,13.9087 -122.317,-2.52166 -37.5414,-16.4658 -68.7851,-47.2052 -84.8257,-88.3087l-0.00236221 -0.00590552c-16.0477,-41.1225 -13.9087,-84.8575 2.52166,-122.319 16.4658,-37.5425 47.2063,-68.7875 88.3087,-84.8268l0.00354331 -0.0011811c41.1237,-16.0477 84.8599,-13.9087 122.321,2.52166z"/>
  <polygon class="fil2" points="605.126,1133 501.368,1364.22 443.118,1338.22 546.877,1107 "/>
  <path class="fil2" d="M1327.67 1232.44c30.2835,-27.5173 71.0776,-43.4823 115.199,-41.3705 44.1555,2.11417 83.2418,21.8906 110.738,52.1528 27.5162,30.2847 43.48,71.0788 41.3681,115.199 -2.11299,44.1544 -21.8894,83.2406 -52.1516,110.737 -30.2823,27.5162 -71.0764,43.4811 -115.197,41.3693 -44.1567,-2.11299 -83.243,-21.8894 -110.739,-52.1516 -27.5173,-30.2835 -43.4811,-71.0776 -41.3693,-115.197 2.11299,-44.1567 21.8894,-83.243 52.1516,-110.739z"/>
  <polygon class="fil2" points="1174.75,1033.62 1372.04,1233.83 1326.54,1278.57 1129.25,1078.37 "/>
  <path class="fil2" d="M1125.03 1395.21c40.2331,-6.89056 83.178,1.62402 119.291,27.1736l0.00472441 0.00354331c36.1264,25.5626 58.4563,63.2457 65.3493,103.504 6.89056,40.2331 -1.62402,83.178 -27.1736,119.288l-0.00708662 0.00826772c-25.5626,36.1252 -63.2434,58.454 -103.499,65.3481 -40.2331,6.89056 -83.1757,-1.62284 -119.287,-27.1713l-0.00826772 -0.00708662c-36.1276,-25.5638 -58.4563,-63.2469 -65.3504,-103.501 -6.89056,-40.2331 1.62402,-83.1757 27.1725,-119.287l0.00354331 -0.00472441c25.5638,-36.1264 63.2481,-58.4575 103.504,-65.354z"/>
  <polygon class="fil2" points="1103.05,1145.37 1161.68,1420.27 1099.18,1433.52 1040.55,1158.62 "/>
 </g>
</svg>
